<?xml version="1.0" encoding="iso-8859-1"?>
<!-- Generator: Adobe Illustrator 19.0.0, SVG Export Plug-In . SVG Version: 6.00 Build 0)  -->
<svg version="1.1" id="Capa_1" xmlns="http://www.w3.org/2000/svg" xmlns:xlink="http://www.w3.org/1999/xlink" x="0px" y="0px"
	 viewBox="0 0 512 512" style="enable-background:new 0 0 512 512;" xml:space="preserve">
<path style="fill:#C97629;" d="M224.576,196.491c-43.45,55.645-71.296,150.877-73.193,257.327h46.441
	C197.859,352.314,198.802,272.838,224.576,196.491z"/>
<path style="fill:#B06328;" d="M203.503,228.899c-16.582,66.711-17.385,137.658-17.408,224.931h11.729
	c0.035-101.504,0.977-180.98,26.752-257.327C217.059,206.138,210.031,217.029,203.503,228.899z"/>
<path style="fill:#FFCA5D;" d="M209.46,453.818c-49.792,0-97.187,12.23-136.832,34.909h273.676
	C306.647,466.048,259.252,453.818,209.46,453.818z"/>
<path style="fill:#014463;" d="M391.302,491.299c-45.894-36.934-105.972-57.972-170.159-60.3
	c0.361-109.277,4.177-192.337,45.265-274.525c2.339-4.678,1.268-10.356-2.63-13.859c-3.898-3.503-9.647-3.968-14.057-1.152
	c-69.888,44.719-116.166,160.884-121.065,299.683C91.06,451.165,56.5,468.038,27.607,491.287c-3.852,3.095-5.318,8.273-3.677,12.94
	c1.652,4.655,6.051,7.773,10.985,7.773h349.091c4.934,0,9.332-3.119,10.973-7.761C396.62,499.572,395.154,494.394,391.302,491.299z
	 M224.576,196.491c-23.785,70.423-26.38,143.907-26.671,234.508c-15.569,0.559-30.883,2.176-45.812,4.911
	C156.62,336.779,183.581,248.995,224.576,196.491z M72.628,488.727c39.645-22.679,87.04-34.909,136.832-34.909
	c49.804,0,97.199,12.23,136.844,34.909H72.628z"/>
<circle style="fill:#D98B37;" cx="244.37" cy="197.818" r="11.636"/>
<path style="fill:#014463;" d="M244.37,232.727c-19.247,0-34.909-15.663-34.909-34.909s15.663-34.909,34.909-34.909
	s34.909,15.663,34.909,34.909S263.616,232.727,244.37,232.727z M244.37,186.193c-6.412,0-11.636,5.225-11.636,11.636
	c0,6.412,5.225,11.636,11.636,11.636c6.412,0,11.636-5.225,11.636-11.636C256.006,191.418,250.781,186.193,244.37,186.193z"/>
<circle style="fill:#D98B37;" cx="232.733" cy="418.909" r="11.636"/>
<path style="fill:#014463;" d="M232.733,453.818c-19.247,0-34.909-15.663-34.909-34.909c0-19.247,15.663-34.909,34.909-34.909
	s34.909,15.663,34.909,34.909C267.642,438.155,251.98,453.818,232.733,453.818z M232.733,407.272
	c-6.412,0-11.636,5.225-11.636,11.636s5.225,11.636,11.636,11.636c6.412,0,11.636-5.225,11.636-11.636
	S239.145,407.272,232.733,407.272z"/>
<circle style="fill:#D98B37;" cx="267.642" cy="442.182" r="11.636"/>
<path style="fill:#014463;" d="M267.642,477.091c-19.247,0-34.909-15.663-34.909-34.909c0-19.247,15.663-34.909,34.909-34.909
	s34.909,15.663,34.909,34.909C302.551,461.428,286.889,477.091,267.642,477.091z M267.642,430.545
	c-6.412,0-11.636,5.225-11.636,11.636s5.225,11.636,11.636,11.636s11.636-5.225,11.636-11.636S274.054,430.545,267.642,430.545z"/>
<circle style="fill:#D98B37;" cx="197.824" cy="186.182" r="11.636"/>
<path style="fill:#014463;" d="M197.824,221.091c-19.247,0-34.909-15.663-34.909-34.909s15.663-34.909,34.909-34.909
	s34.909,15.663,34.909,34.909C232.733,205.44,217.071,221.091,197.824,221.091z M197.824,174.557
	c-6.412,0-11.636,5.225-11.636,11.636c0,6.412,5.225,11.636,11.636,11.636c6.412,0,11.636-5.225,11.636-11.636
	C209.46,179.77,204.236,174.557,197.824,174.557z"/>
<path style="fill:#90C962;" d="M309.417,154.472c4.492-4.247,11.52-4.247,16.012,0l16.559,15.697l16.57-15.697
	c2.234-2.129,5.12-3.188,8.006-3.188s5.76,1.059,8.006,3.188l16.57,15.697l16.559-15.697c4.492-4.247,11.52-4.247,16.012,0
	l8.925,8.46c8.681-3.281,16.826-7.215,24.204-11.671c-24.506-14.895-56.506-23.249-90.263-23.249s-65.757,8.355-90.263,23.249
	c7.366,4.457,15.511,8.39,24.204,11.671L309.417,154.472z"/>
<path style="fill:#014463;" d="M389.638,196.421c-2.956,0-5.83-1.129-8.006-3.188l-15.081-14.289l-15.092,14.289
	c-2.467,2.339-5.841,3.456-9.228,3.13l-3.607-0.419c-2.444-0.314-4.736-1.396-6.54-3.095l-14.673-13.905l-6.086,5.783
	c-3.119,2.956-7.622,3.945-11.66,2.595c-19.665-6.505-36.817-15.581-50.956-26.973c-2.746-2.211-4.34-5.551-4.34-9.065
	c0-3.526,1.594-6.854,4.34-9.065c29.58-23.82,72.529-37.481,117.841-37.481s88.262,13.661,117.841,37.481
	c2.746,2.211,4.34,5.539,4.34,9.065s-1.594,6.854-4.34,9.065c-14.15,11.392-31.29,20.468-50.956,26.973
	c-4.049,1.35-8.541,0.361-11.66-2.595l-6.086-5.783l-14.673,13.905c-1.792,1.699-4.084,2.781-6.54,3.095l-3.607,0.419
	C390.464,196.398,390.057,196.421,389.638,196.421z M366.551,151.284c2.886,0,5.76,1.059,8.006,3.188l16.57,15.697l16.559-15.697
	c4.492-4.247,11.52-4.247,16.012,0l8.925,8.46c8.681-3.281,16.826-7.215,24.204-11.671c-24.506-14.895-56.506-23.249-90.263-23.249
	s-65.757,8.355-90.263,23.249c7.366,4.457,15.511,8.39,24.204,11.671l8.925-8.46c4.492-4.247,11.52-4.247,16.012,0l16.559,15.697
	l16.57-15.697C360.791,152.343,363.666,151.284,366.551,151.284z"/>
<path style="fill:#90C962;" d="M130.356,25.472c1.629,7.04,3.968,14.196,6.959,21.283l10.112-0.081
	c2.63-0.361,6.063,1.175,8.25,3.351c2.199,2.164,3.444,5.12,3.468,8.204l0.14,19.619l19.165-0.14c3.06,0.07,6.063,1.187,8.25,3.351
	c2.188,2.176,3.444,5.12,3.468,8.204l0.14,19.619l19.153-0.151c3.503-0.105,6.063,1.175,8.25,3.351
	c2.199,2.164,3.444,5.12,3.468,8.204l0.07,10.473c6.924,2.897,13.905,5.132,20.771,6.679c-5.737-25.1-20.247-50.444-41.158-71.354
	C180.067,45.242,155.026,30.952,130.356,25.472z"/>
<path style="fill:#014463;" d="M256.006,162.92c-0.291,0-0.582-0.012-0.873-0.035c-16.605-1.245-33.594-5.981-50.467-14.08
	c-4.003-1.92-6.563-5.958-6.598-10.403l-0.047-6.307l-16.803,0.128c-0.035,0-0.058,0-0.093,0c-2.572,0-5.073-0.849-7.11-2.42
	l-2.49-1.943c-2.769-2.188-4.387-5.516-4.41-9.041l-0.128-17.745l-17.315,0.128c-0.023,0-0.058,0-0.081,0
	c-3.549,0-6.912-1.617-9.123-4.41l-1.967-2.502c-1.548-2.013-2.409-4.48-2.42-7.028l-0.128-17.222l-6.039,0.047
	c-4.224-0.07-8.611-2.525-10.566-6.563c-8.204-16.977-13.103-34.095-14.569-50.863c-0.303-3.398,0.919-6.761,3.316-9.193
	c2.397-2.432,5.702-3.735,9.146-3.421c34.711,2.595,71.203,20.666,100.108,49.571c28.87,28.87,47.185,65.559,50.246,100.655
	c0.303,3.398-0.919,6.761-3.316,9.193C262.092,161.675,259.101,162.92,256.006,162.92z M221.283,130.746
	c6.924,2.897,13.905,5.132,20.771,6.679c-5.737-25.1-20.247-50.444-41.158-71.354c-20.829-20.829-45.871-35.119-70.54-40.599
	c1.629,7.04,3.968,14.196,6.959,21.283l10.112-0.081c2.63-0.361,6.063,1.175,8.25,3.351c2.199,2.164,3.444,5.12,3.468,8.204
	l0.14,19.619l19.165-0.14c3.06,0.07,6.063,1.187,8.25,3.351c2.188,2.176,3.444,5.12,3.468,8.204l0.14,19.619l19.153-0.151
	c3.503-0.105,6.063,1.175,8.25,3.351c2.199,2.164,3.444,5.12,3.468,8.204L221.283,130.746z"/>
<path style="fill:#90C962;" d="M269.993,165.108c1.629,7.04,3.968,14.196,6.959,21.283l10.112-0.081
	c3.06,0.07,6.063,1.175,8.25,3.351c2.199,2.164,3.444,5.12,3.468,8.204l0.14,19.619l19.165-0.14c2.874-0.116,6.051,1.187,8.25,3.351
	c2.188,2.176,3.444,5.12,3.468,8.204l0.14,19.619l19.153-0.151c3.328-0.291,6.063,1.175,8.25,3.351
	c2.199,2.164,3.444,5.12,3.468,8.204l0.07,10.473c6.924,2.897,13.905,5.132,20.771,6.679c-5.737-25.1-20.247-50.444-41.158-71.354
	C319.703,184.878,294.662,170.577,269.993,165.108z"/>
<path style="fill:#014463;" d="M395.642,302.545c-0.291,0-0.582-0.012-0.873-0.035c-16.605-1.245-33.594-5.981-50.467-14.08
	c-4.003-1.92-6.563-5.958-6.598-10.403l-0.047-6.307l-16.803,0.128c-0.035,0-0.058,0-0.093,0c-2.572,0-5.073-0.849-7.11-2.42
	l-2.49-1.943c-2.769-2.188-4.387-5.516-4.41-9.041l-0.128-17.745l-17.315,0.128c-0.023,0-0.058,0-0.081,0
	c-3.549,0-6.912-1.617-9.123-4.41l-1.967-2.502c-1.548-2.013-2.409-4.48-2.42-7.028l-0.128-17.222l-6.039,0.047
	c-4.713,0.337-8.599-2.525-10.566-6.563c-8.215-16.966-13.114-34.083-14.58-50.851c-0.303-3.398,0.919-6.761,3.316-9.193
	c2.397-2.432,5.702-3.735,9.146-3.421c34.711,2.595,71.203,20.666,100.108,49.571c28.87,28.87,47.185,65.559,50.246,100.655
	c0.303,3.398-0.919,6.761-3.316,9.193C401.728,301.312,398.738,302.545,395.642,302.545z M360.919,270.382
	c6.924,2.897,13.905,5.132,20.771,6.679c-5.737-25.1-20.247-50.444-41.158-71.354c-20.829-20.829-45.871-35.119-70.54-40.599
	c1.629,7.04,3.968,14.196,6.959,21.283l10.112-0.081c3.06,0.07,6.063,1.175,8.25,3.351c2.199,2.164,3.444,5.12,3.468,8.204
	l0.14,19.619l19.165-0.14c2.874-0.116,6.051,1.187,8.25,3.351c2.188,2.176,3.444,5.12,3.468,8.204l0.14,19.619l19.153-0.151
	c3.328-0.291,6.063,1.175,8.25,3.351c2.199,2.164,3.444,5.12,3.468,8.204L360.919,270.382z"/>
<path style="fill:#90C962;" d="M88.326,154.472c4.492-4.247,11.52-4.247,16.012,0l16.559,15.697l16.57-15.697
	c2.234-2.129,5.12-3.188,8.006-3.188s5.76,1.059,8.006,3.188l16.57,15.697l16.559-15.697c4.492-4.247,11.52-4.247,16.012,0
	l8.925,8.46c8.681-3.281,16.826-7.215,24.204-11.671c-24.506-14.895-56.506-23.249-90.263-23.249s-65.757,8.355-90.263,23.249
	c7.366,4.457,15.511,8.39,24.204,11.671L88.326,154.472z"/>
<path style="fill:#014463;" d="M168.547,196.421c-2.956,0-5.83-1.129-8.006-3.188l-15.081-14.289l-15.092,14.289
	c-2.467,2.339-5.865,3.456-9.228,3.13l-3.607-0.419c-2.444-0.314-4.736-1.396-6.54-3.095L96.32,178.944l-6.086,5.783
	c-3.13,2.956-7.622,3.945-11.66,2.595c-19.665-6.505-36.817-15.581-50.956-26.973c-2.746-2.211-4.34-5.551-4.34-9.065
	c0-3.526,1.594-6.854,4.34-9.065c29.58-23.82,72.529-37.481,117.841-37.481s88.262,13.661,117.841,37.481
	c2.746,2.211,4.34,5.539,4.34,9.065s-1.594,6.854-4.34,9.065c-14.15,11.392-31.29,20.468-50.956,26.973
	c-4.038,1.35-8.541,0.361-11.66-2.595l-6.086-5.783l-14.673,13.905c-1.792,1.699-4.084,2.781-6.54,3.095l-3.607,0.419
	C169.373,196.398,168.966,196.421,168.547,196.421z M145.46,151.284c2.886,0,5.76,1.059,8.006,3.188l16.57,15.697l16.559-15.697
	c4.492-4.247,11.52-4.247,16.012,0l8.925,8.46c8.681-3.281,16.826-7.215,24.204-11.671c-24.506-14.895-56.506-23.249-90.263-23.249
	s-65.757,8.355-90.263,23.249c7.366,4.457,15.511,8.39,24.204,11.671l8.925-8.46c4.492-4.247,11.52-4.247,16.012,0l16.559,15.697
	l16.57-15.697C139.7,152.343,142.575,151.284,145.46,151.284z"/>
<g>
</g>
<g>
</g>
<g>
</g>
<g>
</g>
<g>
</g>
<g>
</g>
<g>
</g>
<g>
</g>
<g>
</g>
<g>
</g>
<g>
</g>
<g>
</g>
<g>
</g>
<g>
</g>
<g>
</g>
</svg>
