<?xml version="1.0" encoding="iso-8859-1"?>
<!-- Generator: Adobe Illustrator 19.0.0, SVG Export Plug-In . SVG Version: 6.00 Build 0)  -->
<svg version="1.1" id="Capa_1" xmlns="http://www.w3.org/2000/svg" xmlns:xlink="http://www.w3.org/1999/xlink" x="0px" y="0px"
	 viewBox="0 0 512.005 512.005" style="enable-background:new 0 0 512.005 512.005;" xml:space="preserve">
<path style="fill:#FFCA5D;" d="M359.887,98.751L339.757,209.46h11.427l21.399-107.008c0.454-2.246,1.559-4.317,3.177-5.946
	l61.603-61.591l-6.819-6.819L359.887,98.751z"/>
<path style="fill:#D98B37;" d="M417.034,209.46H94.962c-16.465,28.393-25.146,60.439-25.146,93.091
	c0,102.656,83.526,186.182,186.182,186.182S442.18,405.207,442.18,302.551C442.18,269.899,433.499,237.852,417.034,209.46z"/>
<path style="fill:#C87729;" d="M426.017,227.019c3.002,13.289,4.527,26.892,4.527,40.623c0,102.656-83.526,186.182-186.182,186.182
	c-75.636,0-140.905-45.405-170.007-110.336c18.723,83.014,93.068,145.245,181.644,145.245c102.656,0,186.182-83.526,186.182-186.182
	C442.18,276.462,436.653,250.78,426.017,227.019z"/>
<polygon style="fill:#F04D4E;" points="217.261,65.285 144.487,58.676 98.174,111.598 "/>
<g>
	<path style="fill:#C97629;" d="M174.543,337.46c-6.423,0-11.636-5.213-11.636-11.636v-46.545c0-6.423,5.213-11.636,11.636-11.636
		c6.423,0,11.636,5.213,11.636,11.636v46.545C186.18,332.247,180.967,337.46,174.543,337.46z"/>
	<path style="fill:#C97629;" d="M255.998,395.642c-6.423,0-11.636-5.213-11.636-11.636V337.46c0-6.423,5.213-11.636,11.636-11.636
		c6.423,0,11.636,5.213,11.636,11.636v46.545C267.634,390.428,262.421,395.642,255.998,395.642z"/>
	<path style="fill:#C97629;" d="M302.532,442.187c-1.745,0-3.526-0.396-5.19-1.222c-5.748-2.874-8.076-9.868-5.201-15.616
		l11.636-23.273c2.874-5.748,9.856-8.076,15.616-5.201c5.748,2.874,8.076,9.868,5.201,15.616l-11.636,23.273
		C310.91,439.836,306.802,442.187,302.532,442.187z"/>
	<path style="fill:#C97629;" d="M174.543,442.199c-4.876,0-9.414-3.084-11.043-7.959l-11.636-34.909
		c-2.036-6.097,1.257-12.684,7.354-14.72c6.121-2.048,12.695,1.257,14.72,7.354l11.636,34.909c2.036,6.097-1.257,12.684-7.354,14.72
		C176.999,442.001,175.754,442.199,174.543,442.199z"/>
	<path style="fill:#C97629;" d="M395.634,349.108c-1.21,0-2.455-0.198-3.677-0.605c-6.097-2.036-9.391-8.623-7.354-14.72
		l11.636-34.909c2.036-6.086,8.564-9.414,14.72-7.354c6.086,2.036,9.391,8.623,7.354,14.72l-11.636,34.909
		C405.048,346.012,400.51,349.108,395.634,349.108z"/>
	<path style="fill:#C97629;" d="M325.816,302.551c-6.423,0-11.636-5.213-11.636-11.636v-34.909c0-6.423,5.213-11.636,11.636-11.636
		c6.423,0,11.636,5.213,11.636,11.636v34.909C337.453,297.338,332.239,302.551,325.816,302.551z"/>
	<path style="fill:#C97629;" d="M221.089,279.278c-6.423,0-11.636-5.213-11.636-11.636v-34.909c0-6.423,5.213-11.636,11.636-11.636
		c6.423,0,11.636,5.213,11.636,11.636v34.909C232.725,274.065,227.512,279.278,221.089,279.278z"/>
	<path style="fill:#C97629;" d="M116.35,279.278c-1.745,0-3.526-0.396-5.19-1.222c-5.748-2.874-8.076-9.868-5.201-15.616
		l11.636-23.273c2.874-5.748,9.844-8.076,15.616-5.201c5.748,2.874,8.076,9.868,5.201,15.616l-11.636,23.273
		C124.728,276.927,120.621,279.278,116.35,279.278z"/>
</g>
<path style="fill:#014463;" d="M423.597,186.187h-44.02l15.151-75.718l67.328-67.328c4.55-4.55,4.55-11.904,0-16.454L438.782,3.415
	c-4.55-4.55-11.904-4.55-16.454,0l-81.455,81.455c-1.676,1.676-2.793,3.817-3.223,6.144l-17.315,95.174H205.554l-29.777-79.791
	l96.07-37.364c5.039-1.955,8.064-7.121,7.308-12.474s-5.097-9.472-10.473-9.961L149.409,35.752L138.901,7.569
	c-2.257-6.028-8.972-9.076-14.976-6.831c-6.028,2.246-9.076,8.948-6.831,14.976l10.182,27.287l-77.859,88.972
	c-3.526,4.038-3.852,9.949-0.768,14.348c2.234,3.177,5.83,4.957,9.53,4.957c1.408,0,2.839-0.256,4.212-0.791l91.683-35.654
	l26.636,71.354H88.399c-4.015,0-7.738,2.06-9.868,5.457c-20.922,33.42-31.988,71.773-31.988,110.906
	c0,115.491,93.964,209.455,209.455,209.455s209.455-93.964,209.455-209.455c0-39.133-11.055-77.487-31.988-110.906
	C431.335,188.247,427.611,186.187,423.597,186.187z M144.487,58.676l72.774,6.609L98.174,111.598L144.487,58.676z M359.887,98.751
	l70.656-70.656l6.819,6.819l-61.591,61.591c-1.629,1.629-2.735,3.689-3.177,5.946l-16.756,83.735h-11.846L359.887,98.751z
	 M255.998,488.732c-102.656,0-186.182-83.526-186.182-186.182c0-32.652,8.681-64.698,25.146-93.091h102.47c0.012,0,0.023,0,0.035,0
	c0.012,0,0.023,0,0.035,0h219.52c16.477,28.393,25.158,60.439,25.158,93.091C442.18,405.207,358.654,488.732,255.998,488.732z"/>
<g>
</g>
<g>
</g>
<g>
</g>
<g>
</g>
<g>
</g>
<g>
</g>
<g>
</g>
<g>
</g>
<g>
</g>
<g>
</g>
<g>
</g>
<g>
</g>
<g>
</g>
<g>
</g>
<g>
</g>
</svg>
