<?xml version="1.0" encoding="iso-8859-1"?>
<!-- Generator: Adobe Illustrator 19.0.0, SVG Export Plug-In . SVG Version: 6.00 Build 0)  -->
<svg version="1.1" id="Capa_1" xmlns="http://www.w3.org/2000/svg" xmlns:xlink="http://www.w3.org/1999/xlink" x="0px" y="0px"
	 viewBox="0 0 512 512" style="enable-background:new 0 0 512 512;" xml:space="preserve">
<path style="fill:#ECEFF9;" d="M23.273,23.273v372.364c0,51.328,41.763,93.091,93.091,93.091h186.182
	c6.412,0,11.636-5.213,11.636-11.636H116.364c-44.916,0-81.455-36.55-81.455-81.455V23.273H23.273z"/>
<path style="fill:#B0C4D8;" d="M267.636,438.342v15.476h46.545v-15.476C299.311,443.497,282.508,443.497,267.636,438.342z"/>
<path style="fill:#70B7E5;" d="M488.727,244.364c0-32.081-26.1-58.182-58.182-58.182H151.273c-32.081,0-58.182,26.1-58.182,58.182
	v69.818c0,19.247,15.663,34.909,34.909,34.909h77.719c12.497,0,24.111-6.737,30.313-17.594l27.369-47.895
	c5.62-9.856,16.163-15.965,27.508-15.965s21.888,6.109,27.52,15.965l27.369,47.895c6.202,10.857,17.815,17.594,30.301,17.594h77.719
	c19.247,0,34.909-15.663,34.909-34.909V244.364z"/>
<g>
	<path style="fill:#4C9CD6;" d="M279.273,256c-11.345,0-21.888,6.121-27.508,15.965l-27.369,47.895
		c-6.214,10.857-17.827,17.594-30.313,17.594h-77.719c-6.644,0-12.986-1.967-18.269-5.201c6.132,10.054,17.292,16.838,29.905,16.838
		h77.719c12.497,0,24.111-6.737,30.313-17.594l27.369-47.895c5.62-9.844,16.163-15.965,27.508-15.965
		c5.644,0,11.078,1.524,15.814,4.259C301.091,262.097,290.583,256,279.273,256z"/>
	<path style="fill:#4C9CD6;" d="M465.338,197.76c7.308,9.716,11.753,21.9,11.753,34.967v69.818
		c0,19.247-15.663,34.909-34.909,34.909h-77.719c-6.481,0-12.847-1.943-18.223-5.201c6.319,10.321,17.711,16.838,29.859,16.838
		h77.719c19.247,0,34.909-15.663,34.909-34.909v-69.818C488.727,225.361,479.476,208.384,465.338,197.76z"/>
</g>
<g>
	<path style="fill:#ACD6F2;" d="M128,244.364c-2.979,0-5.958-1.14-8.227-3.409c-4.55-4.55-4.55-11.904,0-16.454l11.636-11.636
		c4.55-4.55,11.904-4.55,16.454,0c4.55,4.55,4.55,11.904,0,16.454l-11.636,11.636C133.958,243.223,130.979,244.364,128,244.364z"/>
	<path style="fill:#ACD6F2;" d="M128,290.909c-2.979,0-5.958-1.14-8.227-3.409c-4.55-4.55-4.55-11.904,0-16.454l58.182-58.182
		c4.55-4.55,11.904-4.55,16.454,0c4.55,4.55,4.55,11.904,0,16.454L136.227,287.5C133.958,289.769,130.979,290.909,128,290.909z"/>
	<path style="fill:#ACD6F2;" d="M349.091,244.364c-2.979,0-5.958-1.14-8.227-3.409c-4.55-4.55-4.55-11.904,0-16.454l11.636-11.636
		c4.55-4.55,11.904-4.55,16.454,0c4.55,4.55,4.55,11.904,0,16.454l-11.636,11.636C355.049,243.223,352.07,244.364,349.091,244.364z"
		/>
	<path style="fill:#ACD6F2;" d="M349.091,290.909c-2.979,0-5.958-1.14-8.227-3.409c-4.55-4.55-4.55-11.904,0-16.454l58.182-58.182
		c4.55-4.55,11.904-4.55,16.454,0c4.55,4.55,4.55,11.904,0,16.454L357.318,287.5C355.049,289.769,352.07,290.909,349.091,290.909z"
		/>
</g>
<rect x="58.182" y="268.102" style="fill:#B0C4D8;" width="11.636" height="22.772"/>
<path style="fill:#014463;" d="M430.545,162.909H151.273c-44.916,0-81.455,36.538-81.455,81.455H58.182V11.636
	C58.182,5.213,52.969,0,46.545,0H11.636C5.213,0,0,5.213,0,11.636v384C0,459.799,52.201,512,116.364,512h186.182
	c19.247,0,34.909-15.663,34.909-34.909v-58.182c0-4.48-2.572-8.553-6.598-10.484c-4.038-1.943-8.809-1.385-12.323,1.408
	c-14.976,11.997-40.285,11.997-55.261,0c-3.503-2.804-8.297-3.363-12.323-1.408c-4.015,1.932-6.586,6.004-6.586,10.484v34.909h-128
	c-32.081,0-58.182-26.1-58.182-58.182v-81.455h11.636c0,32.081,26.1,58.182,58.182,58.182h77.719
	c20.829,0,40.18-11.241,50.513-29.324l27.38-47.895c2.979-5.225,11.625-5.225,14.604,0l27.38,47.895
	c10.333,18.083,29.684,29.324,50.513,29.324h77.708c32.081,0,58.182-26.1,58.182-58.182v-69.818
	C512,199.447,475.45,162.909,430.545,162.909z M267.636,438.342c14.871,5.155,31.674,5.155,46.545,0v15.476h-46.545V438.342z
	 M116.364,477.091H256h58.182c0,6.423-5.225,11.636-11.636,11.636H116.364c-51.328,0-93.091-41.763-93.091-93.091V23.273h11.636
	v372.364C34.909,440.541,71.447,477.091,116.364,477.091z M58.182,290.909v-23.273h11.636v23.273H58.182z M488.727,314.182
	c0,19.247-15.663,34.909-34.909,34.909h-77.719c-12.486,0-24.099-6.737-30.301-17.594l-27.369-47.895
	c-5.632-9.856-16.175-15.965-27.52-15.965s-21.888,6.109-27.508,15.965l-27.369,47.895c-6.214,10.857-17.827,17.594-30.313,17.594
	H128c-19.247,0-34.909-15.663-34.909-34.909v-69.818c0-32.081,26.1-58.182,58.182-58.182h279.273
	c32.081,0,58.182,26.1,58.182,58.182V314.182z"/>
<g>
</g>
<g>
</g>
<g>
</g>
<g>
</g>
<g>
</g>
<g>
</g>
<g>
</g>
<g>
</g>
<g>
</g>
<g>
</g>
<g>
</g>
<g>
</g>
<g>
</g>
<g>
</g>
<g>
</g>
</svg>
