<?xml version="1.0" encoding="iso-8859-1"?>
<!-- Generator: Adobe Illustrator 18.0.0, SVG Export Plug-In . SVG Version: 6.00 Build 0)  -->
<!DOCTYPE svg PUBLIC "-//W3C//DTD SVG 1.1//EN" "http://www.w3.org/Graphics/SVG/1.1/DTD/svg11.dtd">
<svg version="1.1" id="Capa_1" xmlns="http://www.w3.org/2000/svg" xmlns:xlink="http://www.w3.org/1999/xlink" x="0px" y="0px"
	 viewBox="0 0 296.891 296.891" style="enable-background:new 0 0 296.891 296.891;" xml:space="preserve">
<g>
	<g>
		<g>
			<g>
				<g>
					<path style="fill:#AFDC02;" d="M181.661,37.003c0.002,0,0.004,0,0.005,0C181.665,37.003,181.663,37.003,181.661,37.003z"/>
					<path style="fill:#AFDC02;" d="M182.915,38.643c-0.076,0.009-0.151,0.018-0.227,0.024
						C182.765,38.661,182.839,38.652,182.915,38.643z"/>
					<path style="fill:#AFDC02;" d="M180.515,38.353c0.045,0.017,0.091,0.032,0.137,0.048
						C180.606,38.385,180.56,38.37,180.515,38.353z"/>
				</g>
				<g>
					<path style="fill:#AFDC02;" d="M137.542,12.725c1.308,0.308,2.624,0.656,3.943,1.031
						C140.165,13.381,138.85,13.033,137.542,12.725z"/>
					<path style="fill:#AFDC02;" d="M158.679,20.824c1.191,0.665,2.37,1.387,3.544,2.13
						C161.049,22.211,159.87,21.488,158.679,20.824z"/>
					<path style="fill:#AFDC02;" d="M141.755,13.827c1.295,0.373,2.595,0.789,3.895,1.232C144.35,14.616,143.05,14.2,141.755,13.827
						z"/>
					<path style="fill:#AFDC02;" d="M145.999,15.169c1.302,0.45,2.604,0.946,3.905,1.471
						C148.603,16.115,147.301,15.619,145.999,15.169z"/>
					<path style="fill:#AFDC02;" d="M154.481,18.648c1.229,0.59,2.452,1.233,3.669,1.9C156.932,19.881,155.71,19.237,154.481,18.648
						z"/>
					<path style="fill:#AFDC02;" d="M170.839,29.32c0.973,0.839,1.923,1.746,2.872,2.656
						C172.762,31.066,171.812,30.159,170.839,29.32z"/>
					<path style="fill:#AFDC02;" d="M162.818,23.314c1.118,0.723,2.22,1.508,3.319,2.307
						C165.038,24.821,163.936,24.037,162.818,23.314z"/>
					<path style="fill:#AFDC02;" d="M177.324,35.699c-0.875-0.964-1.749-1.931-2.65-2.827
						C175.575,33.768,176.45,34.735,177.324,35.699z"/>
					<path style="fill:#AFDC02;" d="M166.88,26.14c1.044,0.78,2.068,1.625,3.09,2.479C168.948,27.766,167.924,26.92,166.88,26.14z"
						/>
					<path style="fill:#AFDC02;" d="M150.247,16.77c1.282,0.524,2.561,1.098,3.836,1.701
						C152.807,17.868,151.529,17.294,150.247,16.77z"/>
					<path style="fill:#AFDC02;" d="M112.134,11.867c0.406,0.164,0.785,0.333,1.183,0.498
						C112.919,12.2,112.54,12.031,112.134,11.867z"/>
					<path style="fill:#AFDC02;" d="M133.377,11.843c1.245,0.234,2.503,0.505,3.765,0.796
						C135.88,12.348,134.622,12.078,133.377,11.843z"/>
					<path style="fill:#AFDC02;" d="M120.97,15.908c-0.394-0.203-0.782-0.407-1.186-0.609
						C120.189,15.5,120.576,15.705,120.97,15.908z"/>
					<path style="fill:#AFDC02;" d="M117.338,14.132c-0.416-0.193-0.82-0.389-1.247-0.58
						C116.518,13.743,116.921,13.939,117.338,14.132z"/>
					<path style="fill:#AFDC02;" d="M125.28,10.669c1.037,0.108,2.095,0.247,3.154,0.39
						C127.374,10.916,126.317,10.776,125.28,10.669z"/>
					<path style="fill:#AFDC02;" d="M129.283,11.165c1.171,0.169,2.357,0.371,3.548,0.588
						C131.64,11.536,130.454,11.333,129.283,11.165z"/>
					<path style="fill:#AFDC02;" d="M121.389,10.337c0.898,0.06,1.82,0.148,2.74,0.233C123.21,10.485,122.288,10.397,121.389,10.337
						z"/>
					<path style="fill:#AFDC02;" d="M117.631,10.152c0.725,0.023,1.477,0.071,2.219,0.109
						C119.108,10.223,118.356,10.176,117.631,10.152z"/>
				</g>
				<g>
					<path style="fill:#AFDC02;" d="M150.668,50.214c-0.027-0.171-0.059-0.348-0.091-0.527
						C150.609,49.865,150.641,50.044,150.668,50.214z"/>
					<path style="fill:#AFDC02;" d="M150.466,49.103c-0.04-0.201-0.079-0.4-0.126-0.61
						C150.387,48.703,150.427,48.903,150.466,49.103z"/>
					<path style="fill:#AFDC02;" d="M150.837,51.472c-0.018-0.164-0.038-0.329-0.061-0.505
						C150.799,51.142,150.819,51.308,150.837,51.472z"/>
					<path style="fill:#AFDC02;" d="M149.241,44.653c-0.168-0.483-0.356-0.977-0.558-1.485
						C148.885,43.676,149.072,44.171,149.241,44.653z"/>
					<path style="fill:#AFDC02;" d="M148.931,53.629c0,0.06,0,0.11,0,0.163C148.931,53.737,148.931,53.691,148.931,53.629z"/>
					<path style="fill:#AFDC02;" d="M150.964,53.087c-0.003-0.074-0.008-0.157-0.012-0.237
						C150.955,52.928,150.961,53.014,150.964,53.087z"/>
					<path style="fill:#AFDC02;" d="M150.156,47.714c-0.079-0.323-0.168-0.654-0.263-0.995
						C149.988,47.059,150.077,47.391,150.156,47.714z"/>
					<path style="fill:#AFDC02;" d="M150.971,54.186c0.001-0.034,0.002-0.067,0.003-0.109
						C150.973,54.114,150.973,54.154,150.971,54.186z"/>
					<path style="fill:#AFDC02;" d="M150.922,52.374c-0.008-0.113-0.017-0.226-0.028-0.347
						C150.904,52.148,150.913,52.262,150.922,52.374z"/>
					<path style="fill:#AFDC02;" d="M207.33,62.272c-1.453-0.894-2.36-2.465-2.404-4.172c-0.045-1.705,0.772-3.321,2.177-4.289
						c8.144-5.61,19.47-8.455,33.662-8.455c-0.239,0-0.472,0.008-0.71,0.009c-8.841-2.385-17.067-3.147-23.9-3.147
						c-14.793,0-24.916,3.382-25.017,3.416c-1.941,0.661-4.092,0.079-5.437-1.473c-1.975-2.279-4.03-4.363-6.14-6.287
						c-0.391-0.254-0.754-0.56-1.07-0.924c-0.065-0.074-0.133-0.138-0.198-0.212c-17.35-15.085-38.433-19.058-54.632-19.404
						c-0.146-0.082-0.309-0.161-0.457-0.242c10.5,5.788,17.031,12.189,21.102,18.036c-0.676-0.972-1.395-1.954-2.215-2.951
						c16.736,13.972,16.141,28.476,16.081,29.424c-0.093,1.474-0.828,2.833-2.01,3.72c-1.182,0.887-2.691,1.212-4.133,0.887
						c-13.303-2.985-25.761-4.498-37.027-4.498c-16.457,0-30.814,3.307-42.055,9.607c-1.739,0.071-3.494,0.175-5.258,0.299
						c4.144-0.291,8.223-0.447,12.215-0.447c15.286,0,27.99,2.103,38.299,5.04c1.883-0.697,3.918-1.079,6.039-1.079
						c6.936,0,12.938,4.068,15.749,9.942c4.857,2.693,8.324,5.214,10.483,6.963l4.216,2.619c2.829-1.456,6.03-2.282,9.424-2.282
						c11.4,0,20.674,9.273,20.674,20.672c0,4.688-1.572,9.014-4.211,12.486c6.282,14.579,8.874,30.399,9.936,40.876
						c19.473-28.014-0.177-80.616-0.4-81.199c-0.742-1.95-0.208-4.156,1.344-5.551c1.552-1.394,3.801-1.69,5.661-0.744
						c21.134,10.748,34.67,32.614,41.887,47.63c1.551-15.744-2.191-30.4-11.196-43.731C218.74,69.385,207.443,62.342,207.33,62.272z
						"/>
					<path style="fill:#AFDC02;" d="M53.797,73.089c1.992-0.283,3.966-0.522,5.932-0.743C57.763,72.566,55.788,72.807,53.797,73.089
						z"/>
					<path style="fill:#AFDC02;" d="M145.457,36.86c-0.223-0.356-0.459-0.714-0.7-1.076
						C144.999,36.145,145.234,36.504,145.457,36.86z"/>
					<path style="fill:#AFDC02;" d="M65.784,71.769c-1.387,0.111-2.78,0.237-4.18,0.381C63.005,72.006,64.397,71.881,65.784,71.769z
						"/>
					<path style="fill:#AFDC02;" d="M149.706,46.071c-0.078-0.258-0.161-0.519-0.248-0.785
						C149.545,45.551,149.628,45.813,149.706,46.071z"/>
					<path style="fill:#AFDC02;" d="M146.905,39.362c-0.325-0.61-0.677-1.228-1.056-1.857
						C146.228,38.133,146.58,38.752,146.905,39.362z"/>
					<path style="fill:#AFDC02;" d="M148.424,42.526c-0.13-0.307-0.273-0.621-0.416-0.936
						C148.152,41.904,148.295,42.219,148.424,42.526z"/>
					<path style="fill:#AFDC02;" d="M147.71,40.947c-0.156-0.327-0.315-0.655-0.486-0.989
						C147.395,40.292,147.553,40.62,147.71,40.947z"/>
				</g>
				<g>
					<path style="fill:#FFFFFF;" d="M219.437,96.579c8.884,9.919,15.322,21.127,19.57,29.964c0.183-1.848,0.285-3.68,0.321-5.498"/>
				</g>
			</g>
			<g>
				<path style="fill:#FDBD1D;" d="M164.016,101.997c0.549,0,1.084,0.054,1.611,0.133
					C165.1,102.051,164.565,101.997,164.016,101.997z"/>
				<path style="fill:#FDBD1D;" d="M167.672,102.642c0.455,0.163,0.897,0.351,1.321,0.571
					C168.569,102.993,168.127,102.805,167.672,102.642z"/>
				<path style="fill:#FDBD1D;" d="M169.122,103.275c0.447,0.239,0.871,0.516,1.278,0.813
					C169.992,103.791,169.569,103.514,169.122,103.275z"/>
				<path style="fill:#FDBD1D;" d="M171.877,105.383c0.335,0.353,0.646,0.729,0.931,1.125
					C172.522,106.112,172.212,105.737,171.877,105.383z"/>
				<path style="fill:#FDBD1D;" d="M173.808,108.2c0.226,0.477,0.428,0.968,0.583,1.479
					C174.235,109.167,174.034,108.676,173.808,108.2z"/>
				<path style="fill:#FDBD1D;" d="M165.941,102.177c0.504,0.091,0.997,0.213,1.475,0.371
					C166.938,102.391,166.445,102.268,165.941,102.177z"/>
				<path style="fill:#FDBD1D;" d="M172.916,106.652c0.292,0.419,0.551,0.861,0.782,1.32
					C173.466,107.513,173.208,107.071,172.916,106.652z"/>
				<path style="fill:#FDBD1D;" d="M171.767,105.262c-0.352-0.359-0.731-0.689-1.13-0.997
					C171.035,104.573,171.415,104.903,171.767,105.262z"/>
				<path style="fill:#FDBD1D;" d="M174.391,109.679c-1.001-0.305-2.063-0.472-3.164-0.472c-5.99,0-10.847,4.855-10.847,10.845
					c0,1.101,0.168,2.163,0.472,3.164c-0.514-0.157-1.008-0.359-1.487-0.587c1.411,0.672,2.984,1.059,4.651,1.059
					c5.989,0,10.847-4.856,10.847-10.847C174.863,111.742,174.696,110.68,174.391,109.679z"/>
				<path style="fill:#FDBD1D;" d="M155.264,119.23c-0.299-0.409-0.576-0.834-0.817-1.284
					C154.687,118.396,154.965,118.821,155.264,119.23z"/>
				<path style="fill:#FDBD1D;" d="M157.688,121.639c-0.401-0.289-0.783-0.604-1.14-0.944
					C156.905,121.035,157.286,121.35,157.688,121.639z"/>
				<path style="fill:#FDBD1D;" d="M155.435,119.459c0.31,0.401,0.642,0.783,1.004,1.137
					C156.077,120.242,155.744,119.859,155.435,119.459z"/>
				<path style="fill:#FDBD1D;" d="M159.151,122.527c-0.462-0.233-0.908-0.494-1.329-0.788
					C158.243,122.033,158.688,122.294,159.151,122.527z"/>
				<path style="fill:#FDBD1D;" d="M154.388,117.823c-0.221-0.426-0.41-0.871-0.574-1.328
					C153.977,116.952,154.167,117.397,154.388,117.823z"/>
				<path style="fill:#FDBD1D;" d="M153.302,114.454c-0.079-0.527-0.133-1.062-0.133-1.611
					C153.169,113.391,153.223,113.926,153.302,114.454z"/>
				<path style="fill:#FDBD1D;" d="M153.721,116.243c-0.158-0.478-0.281-0.972-0.372-1.477
					C153.44,115.272,153.563,115.765,153.721,116.243z"/>
			</g>
			<g>
				<path style="fill:#FDBD1D;" d="M133.922,117.075c-30.079,30.166-44.734,70.917-43.725,121.608c0,0,0.69,14.821,0.792,16.084
					c0.11,1.353,0.203,2.501,0.262,3.425c0.316,4.889,3.91,7.701,10.681,8.397c0.662-0.066,1.067-0.125,1.075-0.126
					c0.214-0.034,0.441-0.055,0.656-0.059c4.735-0.12,8.003-1.352,9.716-3.666c2.512-3.398,1.7-9.031,1.175-10.916
					c-0.161-0.579-0.303-1.151-0.453-1.724l0.058-0.003l-2.884-12.165c-8.516-43.387,0.98-77.864,11.09-99.92
					C126.091,129.88,130.114,122.892,133.922,117.075z"/>
				<path style="fill:#FDBD1D;" d="M144.41,102.951c0.075-0.088,0.155-0.185,0.228-0.272
					C144.564,102.766,144.485,102.862,144.41,102.951z"/>
				<path style="fill:#FDBD1D;" d="M101.853,266.597c-0.148,0.014-0.313,0.028-0.485,0.043
					C101.543,266.625,101.704,266.612,101.853,266.597z"/>
				<path style="fill:#FDBD1D;" d="M99.341,266.752c-0.334,0.009-0.681,0.015-1.044,0.015
					C98.66,266.767,99.007,266.761,99.341,266.752z"/>
				<path style="fill:#FDBD1D;" d="M100.297,266.713c-0.212,0.011-0.44,0.02-0.671,0.028
					C99.857,266.733,100.084,266.724,100.297,266.713z"/>
				<path style="fill:#FDBD1D;" d="M101.147,266.658c-0.18,0.014-0.377,0.026-0.577,0.038
					C100.772,266.684,100.966,266.672,101.147,266.658z"/>
				<path style="fill:#FDBD1D;" d="M141.781,106.161c0.063-0.079,0.128-0.163,0.19-0.241
					C141.908,105.999,141.844,106.081,141.781,106.161z"/>
				<path style="fill:#FDBD1D;" d="M143.124,104.496c0.078-0.095,0.159-0.197,0.236-0.29
					C143.283,104.3,143.202,104.4,143.124,104.496z"/>
				<path style="fill:#FDBD1D;" d="M134.931,114.536c0-0.001,0-0.002,0-0.003C134.931,114.534,134.931,114.535,134.931,114.536z"/>
				<path style="fill:#FDBD1D;" d="M137.254,112.191c0.019-0.026,0.037-0.053,0.056-0.079
					C137.292,112.139,137.273,112.165,137.254,112.191z"/>
				<path style="fill:#FDBD1D;" d="M140.348,107.999c0.048-0.062,0.096-0.126,0.144-0.188
					C140.444,107.873,140.396,107.936,140.348,107.999z"/>
				<path style="fill:#FDBD1D;" d="M138.836,110.009c0.033-0.044,0.066-0.089,0.099-0.134
					C138.902,109.92,138.869,109.965,138.836,110.009z"/>
			</g>
			<g>
				<path style="fill:#FDBD1D;" d="M128.449,86.241c0.222,0.147,0.419,0.326,0.624,0.495
					C128.867,86.568,128.671,86.389,128.449,86.241z"/>
				<path style="fill:#FDBD1D;" d="M127.181,85.564c0.215,0.09,0.41,0.215,0.614,0.323C127.59,85.778,127.396,85.653,127.181,85.564
					z"/>
				<path style="fill:#FDBD1D;" d="M130.475,88.216c0.18,0.257,0.327,0.536,0.475,0.814
					C130.801,88.751,130.656,88.472,130.475,88.216z"/>
				<path style="fill:#FDBD1D;" d="M131.182,89.457c0.134,0.296,0.23,0.611,0.326,0.926
					C131.412,90.068,131.316,89.754,131.182,89.457z"/>
				<path style="fill:#FDBD1D;" d="M130.132,87.799c-0.186-0.228-0.365-0.46-0.576-0.664
					C129.766,87.34,129.946,87.572,130.132,87.799z"/>
				<path style="fill:#FDBD1D;" d="M125.778,85.133c0.178,0.036,0.342,0.107,0.515,0.155
					C126.12,85.241,125.957,85.169,125.778,85.133z"/>
				<path style="fill:#FDBD1D;" d="M131.648,90.835c0.075,0.32,0.111,0.653,0.144,0.987
					C131.759,91.488,131.724,91.156,131.648,90.835z"/>
				<path style="fill:#FDBD1D;" d="M123.481,100.099c-0.321-0.034-0.641-0.067-0.949-0.139
					C122.84,100.032,123.16,100.065,123.481,100.099z"/>
				<path style="fill:#FDBD1D;" d="M120.704,99.251c-0.272-0.145-0.546-0.288-0.797-0.465
					C120.158,98.963,120.431,99.105,120.704,99.251z"/>
				<path style="fill:#FDBD1D;" d="M122.047,99.809c-0.305-0.093-0.61-0.186-0.896-0.316
					C121.438,99.623,121.742,99.715,122.047,99.809z"/>
				<path style="fill:#FDBD1D;" d="M131.831,92.21c-0.117-0.006-0.233-0.018-0.351-0.018c-4.197,0-7.599,3.402-7.599,7.598
					c0,0.118,0.012,0.234,0.017,0.35c0.126,0.006,0.244,0.037,0.371,0.037c4.195,0,7.599-3.402,7.599-7.598
					C131.869,92.453,131.837,92.335,131.831,92.21z"/>
				<path style="fill:#FDBD1D;" d="M118.422,97.378c-0.167-0.203-0.345-0.399-0.491-0.619
					C118.077,96.98,118.255,97.174,118.422,97.378z"/>
				<path style="fill:#FDBD1D;" d="M118.825,97.866c0.202,0.208,0.432,0.385,0.657,0.569
					C119.257,98.252,119.027,98.074,118.825,97.866z"/>
				<path style="fill:#FDBD1D;" d="M117.573,96.1c-0.107-0.203-0.231-0.395-0.319-0.609C117.342,95.705,117.466,95.897,117.573,96.1
					z"/>
				<path style="fill:#FDBD1D;" d="M116.978,94.605c-0.048-0.174-0.119-0.338-0.156-0.516
					C116.859,94.267,116.93,94.431,116.978,94.605z"/>
			</g>
			<g>
				<path style="fill:#FDBD1D;" d="M195.581,272.658c0.264,0.233,0.506,0.461,0.735,0.685
					C196.087,273.118,195.845,272.891,195.581,272.658z"/>
				<path style="fill:#FDBD1D;" d="M190.652,269.169c0.622,0.369,1.19,0.728,1.727,1.081
					C191.842,269.896,191.274,269.537,190.652,269.169z"/>
				<path style="fill:#FDBD1D;" d="M194.381,271.675c0.277,0.214,0.539,0.425,0.786,0.632
					C194.919,272.099,194.658,271.889,194.381,271.675z"/>
				<path style="fill:#FDBD1D;" d="M197.364,274.462c-0.237-0.286-0.503-0.579-0.798-0.879
					C196.861,273.884,197.127,274.177,197.364,274.462z"/>
				<path style="fill:#FDBD1D;" d="M197.501,274.639c0.182,0.227,0.351,0.451,0.5,0.668
					C197.852,275.09,197.683,274.867,197.501,274.639z"/>
				<path style="fill:#FDBD1D;" d="M198.625,276.358c0.096,0.19,0.179,0.375,0.253,0.556
					C198.804,276.733,198.72,276.548,198.625,276.358z"/>
				<path style="fill:#FDBD1D;" d="M198.165,275.559c0.121,0.19,0.234,0.376,0.333,0.558
					C198.399,275.935,198.286,275.749,198.165,275.559z"/>
				<path style="fill:#FDBD1D;" d="M192.895,270.602c0.342,0.233,0.673,0.464,0.98,0.69
					C193.568,271.066,193.237,270.835,192.895,270.602z"/>
				<path style="fill:#FDBD1D;" d="M125.07,253.461c-0.023-0.224-0.048-0.437-0.075-0.648
					C125.022,253.023,125.047,253.238,125.07,253.461z"/>
				<path style="fill:#FDBD1D;" d="M124.938,252.361c-0.029-0.207-0.059-0.398-0.09-0.59
					C124.878,251.961,124.909,252.155,124.938,252.361z"/>
				<path style="fill:#FDBD1D;" d="M125.168,254.67c-0.015-0.239-0.032-0.469-0.051-0.697
					C125.136,254.2,125.153,254.432,125.168,254.67z"/>
				<path style="fill:#FDBD1D;" d="M124.785,251.389c-0.034-0.192-0.067-0.364-0.101-0.536
					C124.718,251.024,124.752,251.199,124.785,251.389z"/>
				<path style="fill:#FDBD1D;" d="M124.629,250.567c-0.037-0.177-0.071-0.33-0.105-0.48
					C124.557,250.236,124.592,250.39,124.629,250.567z"/>
				<path style="fill:#FDBD1D;" d="M124.358,249.404c-0.035-0.134-0.065-0.239-0.084-0.306
					C124.293,249.165,124.323,249.269,124.358,249.404z"/>
				<path style="fill:#FDBD1D;" d="M124.481,249.897c-0.039-0.164-0.073-0.298-0.104-0.419
					C124.408,249.598,124.442,249.734,124.481,249.897z"/>
			</g>
			<path style="fill:#FDBD1D;" d="M198.927,277.033c-0.342-0.216-0.693-0.432-1.065-0.654
				c-13.982-8.287-43.135-18.083-72.647-20.747c-0.004-0.135-0.014-0.26-0.019-0.393c0.16,3.922-0.439,9.045-3.648,13.431
				c-3.605,4.926-9.431,7.555-17.321,7.816c-0.852,0.117-3.062,0.376-5.93,0.376c-13.549,0-22.121-5.573-23.98-15.383
				c0.017,0.089,0.018,0.187,0.036,0.275c-10.312,3.456-19.97,8.271-28.912,14.438c-3.305,2.253-8.772,6.495-9.949,9.976
				c-7.363-1.167-8.56-3.49-8.56-5.461c0,0.002,0,0.005,0,0.007c0,2.425,2.087,7.289,15.563,7.289h148.732
				c0.168,0,0.335-0.616,0.501-0.599c0.051,0.004,0.256-0.295,0.559-0.295c6.982,0,7.079-4.888,7.118-6.67
				C199.421,279.584,199.435,278.345,198.927,277.033z"/>
		</g>
		<path style="fill:#B74B00;" d="M276.313,50.894c-23.647-21.472-49.686-25.98-67.368-25.98c-11.461,0-20.444,1.841-24.997,3.012
			C162.454,4.924,134.233,0,114.031,0C95.959,0,82.712,3.841,82.157,4.004c-2.226,0.656-3.719,2.747-3.617,5.066
			c0.104,2.319,1.776,4.269,4.053,4.725c31.042,6.209,45.273,16.95,51.744,24.869c2.736,3.349,4.332,6.444,5.26,8.948
			c-11.271-2.129-21.941-3.206-31.805-3.206c-54.782,0-69.479,32.383-70.077,33.762c-0.749,1.724-0.477,3.722,0.704,5.184
			s3.079,2.145,4.922,1.775c12.723-2.563,25.024-3.862,36.564-3.862c11.134,0,20.77,1.215,28.983,3.047
			c-1.329,2.461-2.084,5.275-2.084,8.262c0,8.163,5.637,15.032,13.223,16.924c-20.553,20.482-34.577,45.718-41.814,75.335
			c-5.539,22.661-5.922,43.314-5.347,57.484c-14.576,3.748-28.065,9.869-40.33,18.329c-1.393,0.942-13.611,9.506-13.611,19.943
			c0,15.039,16.238,15.89,23.171,16.253c0.089,0.005,0.176,0.007,0.265,0.007h148.662c0.283,0.021,0.715,0.042,1.263,0.042h0.002
			c7.782,0,16.959-4.295,17.209-16.401c0.166-8.123-4.059-14.293-13.697-20.005c-15.491-9.181-43.181-19.713-74.14-22.082
			c-7.171-33.658-3.923-65.831,9.699-95.783c4.222-9.284,8.906-17.041,13.123-23.12c2.717,8.248,10.49,14.22,19.636,14.22
			c2.914,0,5.687-0.609,8.203-1.702c8.445,21.461,8.837,45.787,8.843,46.266c0.015,1.923,1.123,3.669,2.853,4.505
			c0.697,0.337,1.446,0.501,2.193,0.501c1.107,0,2.204-0.363,3.108-1.07c27.324-21.348,20.471-64.457,14.576-86.707
			c21.658,18.222,31.809,49.414,31.923,49.774c0.666,2.098,2.612,3.522,4.812,3.522c0.008,0,0.018,0,0.028,0
			c2.21-0.012,4.154-1.461,4.799-3.576c9.491-31.141,0.059-54.401-9.524-68.431c-5.609-8.212-11.862-14.241-16.486-18.085
			c5.725-2.17,12.862-3.266,21.32-3.266c15.905,0,30.667,4.004,30.811,4.044c2.25,0.621,4.637-0.384,5.764-2.432
			C278.468,55.017,278.042,52.464,276.313,50.894z M116.67,92.58c0-4.197,3.402-7.598,7.599-7.598c4.195,0,7.599,3.402,7.599,7.598
			c0,4.197-3.404,7.599-7.599,7.599C120.073,100.178,116.67,96.777,116.67,92.58z M121.547,268.67
			c5.85-7.995,3.046-18.469,2.726-19.573c-0.032-0.118-0.062-0.235-0.094-0.353c27.853,2.676,52.49,12.138,66.472,20.425
			c8.871,5.259,8.796,8.926,8.753,11.114c-0.038,1.781-0.135,6.514-7.118,6.514c-0.303,0-0.509-0.013-0.559-0.017
			c-0.166-0.017-0.334-0.026-0.501-0.026H42.494c-13.476-0.725-13.475-3.74-13.475-6.165c0-3.674,5.367-8.986,9.21-11.607
			c10.752-7.416,22.537-12.883,35.251-16.374c0.083,1.076,0.163,2.076,0.235,2.974c0.104,1.288,0.193,2.38,0.251,3.26
			c0.737,11.452,9.605,18.021,24.33,18.021c2.869,0,5.078-0.259,5.93-0.376C112.116,276.226,117.942,273.596,121.547,268.67z
			 M122.364,138.011c-2.876,6.275-5.701,13.558-8.077,21.763h-5.878c-2.789,0-5.047,2.26-5.047,5.047
			c0,2.788,2.259,5.047,5.047,5.047h3.314c-1.484,6.747-2.617,14.007-3.231,21.741h-7.495c-2.789,0-5.047,2.259-5.047,5.047
			c0,2.787,2.259,5.047,5.047,5.047h7.009c-0.12,6.92,0.193,14.173,1.041,21.74h-9.224c-2.789,0-5.047,2.26-5.047,5.047
			c0,2.788,2.259,5.047,5.047,5.047h10.648c0.249,1.455,0.514,2.918,0.803,4.392l2.884,12.165l-0.058,0.003
			c0.151,0.573,0.293,1.145,0.454,1.724c0.525,1.884,1.338,7.518-1.175,10.916c-1.713,2.314-4.981,3.546-9.716,3.666
			c-0.215,0.004-0.442,0.025-0.656,0.059c-0.02,0.003-2.001,0.304-4.711,0.304c-9.093,0-13.89-2.884-14.256-8.575
			c-0.059-0.924-0.152-2.072-0.262-3.425c-0.101-1.263-0.792-16.084-0.792-16.084c-1.201-60.309,19.763-106.554,62.502-137.634
			c0.132,0.118,0.237,0.212,0.314,0.284C140.21,107.697,130.565,120.12,122.364,138.011z M164.016,123.689
			c-5.99,0-10.847-4.856-10.847-10.847c0-5.99,4.857-10.845,10.847-10.845c5.989,0,10.847,4.855,10.847,10.845
			C174.863,118.833,170.006,123.689,164.016,123.689z M240.766,45.357c-14.193,0-25.518,2.845-33.662,8.455
			c-1.406,0.968-2.222,2.583-2.177,4.289c0.044,1.706,0.951,3.277,2.404,4.171c0.113,0.07,11.41,7.113,20.481,20.54
			c9.005,13.33,12.747,27.987,11.196,43.731c-7.218-15.016-20.753-36.882-41.887-47.63c-1.86-0.946-4.109-0.65-5.661,0.744
			c-1.552,1.395-2.086,3.601-1.344,5.551c0.223,0.584,19.873,53.185,0.4,81.2c-1.062-10.477-3.653-26.297-9.936-40.876
			c2.639-3.471,4.211-7.798,4.211-12.486c0-11.399-9.274-20.672-20.674-20.672c-3.394,0-6.595,0.827-9.424,2.282l-4.216-2.619
			c-2.159-1.749-5.626-4.27-10.483-6.963c-2.811-5.874-8.813-9.942-15.749-9.942c-2.121,0-4.156,0.382-6.039,1.079
			c-10.309-2.938-23.013-5.04-38.299-5.04c-8.381,0-17.122,0.644-26.109,1.92c1.491-1.51,3.263-3.101,5.347-4.686
			c11.955-9.096,28.777-13.903,48.648-13.903c11.267,0,23.724,1.513,37.027,4.498c1.442,0.325,2.952-0.001,4.133-0.887
			c1.182-0.887,1.917-2.246,2.01-3.72c0.082-1.303,1.186-28.192-43.051-44.137c1.961-0.102,4.007-0.16,6.119-0.16
			c18.788,0,45.222,4.659,64.46,26.857c1.345,1.552,3.497,2.134,5.437,1.473c0.101-0.034,10.224-3.416,25.017-3.416
			c11.64,0,27.308,2.172,43.208,10.907C248.552,45.576,244.706,45.357,240.766,45.357z"/>
	</g>
</g>
<g>
</g>
<g>
</g>
<g>
</g>
<g>
</g>
<g>
</g>
<g>
</g>
<g>
</g>
<g>
</g>
<g>
</g>
<g>
</g>
<g>
</g>
<g>
</g>
<g>
</g>
<g>
</g>
<g>
</g>
</svg>
